<svg viewBox="0 0 50 51" version="1.1" xmlns="http://www.w3.org/2000/svg" xmlns:xlink="http://www.w3.org/1999/xlink">
    <g id="Page-1" stroke="none" stroke-width="1" fill="none" fill-rule="evenodd">
        <g id="Meny" transform="translate(-164.000000, -96.000000)" stroke="#0DA0A4" stroke-width="0.5" fill="#0DA0A4">
            <g id="Page-1" transform="translate(165.000000, 97.000000)">
                <path d="M39.2727273,42.4666667 L46.419719,19.6 L46.9090909,36.004237 L39.2727273,42.4666667 Z M24.6372567,47.9111111 L13.0909091,43.6077514 L36,43.5555556 L24.6372567,47.9111111 Z M2.3956707,18.5111111 L9.81818182,41.3777778 L1.09090909,33.4103157 L2.3956707,18.5111111 Z M9.43909337,4.44474074 L21.8181818,1.08888889 L3.27272727,15.2444444 L9.43909337,4.44474074 Z M44.7272727,15.2444444 L26.1818182,1.08888889 L36.9416256,3.023963 L44.7272727,15.2444444 Z M19.6363636,21.1381764 L45.8181818,17.4222222 L37.766307,42.4666667 L19.6363636,21.1381764 Z M18.976872,21.7777778 L37.0909091,42.4052203 L10.9090909,42.4666667 L18.976872,21.7777778 Z M18.5454545,20.890704 L10.4144424,41.3777778 L2.18181818,17.4222222 L18.5454545,20.890704 Z M19.1551066,19.6 L3.27272727,16.0983849 L24,1.08888889 L19.1551066,19.6 Z M45.8181818,15.9984062 L19.6363636,19.6 L24.5824775,1.08888889 L45.8181818,15.9984062 Z M47.4158131,16.626 C47.4158131,16.622 47.4148131,16.617 47.4148131,16.613 C47.4138131,16.601 47.4108132,16.589 47.4098132,16.578 C47.4068132,16.557 47.4028132,16.536 47.3968132,16.516 C47.3948132,16.51 47.3938132,16.504 47.3928132,16.498 C47.3898132,16.49 47.3848132,16.483 47.3818132,16.475 C47.3748132,16.456 47.3648132,16.439 47.3548133,16.422 C47.3498133,16.412 47.3468133,16.402 47.3398133,16.392 L37.8778321,2.41 C37.8098323,2.31 37.7028325,2.241 37.5828327,2.221 L24.5138588,0.007 C24.4958588,0.004 24.4768588,0.005 24.4578589,0.004 C24.4438589,0.003 24.4298589,0.001 24.415859,0.001 C24.409859,0.001 24.403859,0 24.397859,0 C24.3678591,0.002 24.3378591,0.007 24.3098592,0.015 L9.32388903,3.879 C9.21088926,3.908 9.11288945,3.981 9.05288957,4.081 L1.58890444,16.513 C1.57090448,16.543 1.55590451,16.575 1.54490453,16.609 C1.54290453,16.615 1.54190454,16.621 1.54090454,16.628 C1.53290455,16.652 1.52690457,16.677 1.52390457,16.703 L1.52390457,16.704 C1.52290457,16.705 1.52290457,16.705 1.52390457,16.705 C1.52390457,16.707 1.52290457,16.708 1.52290457,16.709 L0.00190760369,33.829 C-0.0110923704,33.968 0.042907522,34.104 0.146907315,34.197 L10.326887,43.352 C10.329887,43.354 10.332887,43.354 10.335887,43.356 C10.341887,43.362 10.347887,43.367 10.353887,43.372 C10.359887,43.376 10.364887,43.381 10.3708869,43.385 C10.3988869,43.405 10.4288868,43.422 10.4618868,43.435 L24.4798588,48.969 C24.5328587,48.99 24.5888586,49 24.6438585,49 C24.7018584,49 24.7588583,48.989 24.8128582,48.967 L38.6078307,43.366 C38.6258307,43.359 38.6418306,43.346 38.6588306,43.336 C38.6768306,43.326 38.6948305,43.318 38.7108305,43.305 C38.7148305,43.302 38.7188305,43.301 38.7228305,43.299 L47.8368123,35.861 C47.9438121,35.774 48.003812,35.642 47.999812,35.504 L47.4158131,16.626 Z" id="Fill-1"></path>
            </g>
        </g>
    </g>
</svg>